<?xml version="1.0" standalone="no"?><!DOCTYPE svg PUBLIC "-//W3C//DTD SVG 1.1//EN" "http://www.w3.org/Graphics/SVG/1.1/DTD/svg11.dtd"><svg t="1735866312111" class="icon" viewBox="0 0 2168 1024" version="1.1" xmlns="http://www.w3.org/2000/svg" p-id="5084" xmlns:xlink="http://www.w3.org/1999/xlink" width="271" height="128"><path d="M440.019 486.039h198.084v121.916H440.019V486.039z m174.893 100.713v-29.154H463.209v29.154h151.733z m-151.733-49.363h151.733v-30.148H463.209v30.148z m-60.295-145.77H527.45v-30.478h23.19v30.479h124.568v21.865H573.5c24.847 24.185 63.277 43.4 115.652 57.314l-10.3 21.534c-59.633-20.209-101.708-46.381-126.193-78.848h-2.018v61.952h-23.19v-61.952h-1.988c-25.841 31.804-67.916 58.308-125.892 79.18l-12.59-21.203c53.008-15.24 92.462-34.786 118.273-57.977h-102.37V391.62z m-6.626 242.177H680.87v22.196H396.258v-22.196zM746.315 422.76h105.02c3.645-7.95 6.958-16.233 10.27-24.184a1730.68 1730.68 0 0 1-105.35 2.982l-6.928-19.878c94.057 0 171.912-6.295 233.864-18.884l10.932 18.884c-31.473 6.957-67.915 11.927-109.628 15.24-3.012 8.944-6.325 17.558-9.638 25.84H998.1v20.54H865.28c-4.006 7.952-8.312 15.24-12.62 22.529h164.654v21.202h-179.2c-5.994 7.952-11.957 15.571-18.251 22.86h164.321v156.04h-22.859v-14.246H811.58v14.245h-22.86V541.696a513.897 513.897 0 0 1-55.988 44.062l-12.92-20.54c36.14-24.516 65.957-50.357 89.45-78.186h-80.837V465.83h97.4c5.302-7.62 10.271-15.24 14.578-22.528h-94.088v-20.54z m65.265 147.426v20.872h149.745v-20.872H811.58z m149.745-18.552v-22.197H811.58v22.197h149.745zM811.58 609.61v22.528h149.745v-22.528H811.58z m251.332-234.556h283.92v22.197h-130.2v28.822h102.702v131.193h-106.677c-3.976 21.865-10.27 39.424-19.546 52.676 46.38 19.546 101.376 30.479 164.984 32.466l-5.963 22.86c-66.59-2.65-124.567-15.571-173.93-38.1-23.19 19.879-61.29 32.468-113.965 38.431l-10.27-21.865c46.05-3.645 79.842-12.92 101.045-28.16a317.35 317.35 0 0 1-53.339-36.774l18.222-12.59a286.66 286.66 0 0 0 51.35 33.793c7.951-11.264 13.915-25.51 17.227-42.737h-97.069V426.074h101.376v-28.822h-129.867v-22.197z m232.9 161.34v-35.117h-79.18v11.595l-0.993 23.522h80.173z m-104.027 0c0.663-7.62 0.994-15.57 0.994-23.522v-11.595h-77.854v35.117h76.86z m-76.86-54.995h77.854v-34.785h-77.854V481.4z m101.707-34.785V481.4h79.18v-34.785h-79.18z m319.91-85.806l21.203 11.264a253.892 253.892 0 0 1-18.884 18.884h95.082v18.884c-35.78 63.608-102.4 99.388-199.108 107.008l-10.27-21.534c29.816-1.988 56.32-6.295 80.173-13.252a323.223 323.223 0 0 0-32.467-34.455l20.872-9.938c11.926 11.264 23.19 23.19 33.792 36.442 34.454-13.914 61.289-34.786 79.811-61.952h-96.707c-25.841 15.24-56.32 26.835-91.769 34.786l-13.914-21.866c58.97-11.264 103.002-32.466 132.186-64.27z m-12.59 207.06c12.59 12.92 24.848 26.834 36.112 41.742 36.744-15.902 65.596-38.761 86.8-67.915H1548.8c-29.154 13.914-63.608 24.516-103.695 31.473l-14.246-21.203c72.222-7.288 125.56-29.485 160.015-65.927l20.54 11.264a238.29 238.29 0 0 1-25.51 22.528h90.776v18.883c-47.044 78.186-134.506 118.604-263.048 121.585l-9.638-22.859c51.712-0.331 96.437-6.626 133.873-19.215a353.49 353.49 0 0 0-35.117-40.418l21.203-9.939z" p-id="5085" fill="#444444"></path><path d="M90.353 45.176a45.176 45.176 0 0 0-45.177 45.177v843.294a45.176 45.176 0 0 0 45.177 45.177h1867.294a45.176 45.176 0 0 0 45.177-45.177V90.353a45.176 45.176 0 0 0-45.177-45.177H90.353zM2048 512h-45.026v361.412H2048v60.235a90.353 90.353 0 0 1-90.353 90.353H90.353A90.353 90.353 0 0 1 0 933.647V90.353A90.353 90.353 0 0 1 90.353 0h1867.294A90.353 90.353 0 0 1 2048 90.353V512z m-0.904 155.889l-0.18-77.282a21.143 21.143 0 0 0-21.263-21.504 21.715 21.715 0 0 0-21.926 21.504l-0.09 77.402-77.101 0.181c-12.108 0-21.926 8.945-21.926 20.842 0 11.866 9.818 21.473 21.956 21.473l77.01 0.09-0.06 77.945c0 11.897 9.819 21.504 21.956 21.504 12.107 0 21.926-9.637 21.926-21.504l-0.15-77.884 76.347 0.06c12.138 0 21.956-9.637 21.956-21.504a21.715 21.715 0 0 0-21.956-21.504l-76.499 0.18z" p-id="5086" fill="#444444"></path></svg>